<svg id="logo" version="1.0" xmlns="http://www.w3.org/2000/svg" viewBox="0 0 512 512">
    <path d="M222 33.5c-1.8.9-18.8 29.6-56.9 95.7-30 51.9-73.6 127.4-96.9 167.8C3 409.8 0 415.1 0 417.4c0 2.4 30.9 56.8 34.1 60.1 1.9 2 3.4 2 220.7 2.2 174.2.2 219.2 0 221.2-1 3-1.5 36-57.7 36-61.3 0-1.2-33.8-61.3-75.2-133.6-41.3-72.2-90.3-157.8-108.9-190.2-22.2-38.8-34.5-59.4-36-60.2-3.6-2-66.3-1.9-69.9.1zm106.2 93.8c24.6 43 70.8 123.8 102.8 179.6 31.9 55.7 58 101.5 58 101.7 0 .3-9.3.3-20.6.2l-20.7-.3-95.9-166C299.1 151.2 252.4 70.3 248 62.7L240.1 49h43.4l44.7 78.3zm-79.8-31c12.1 21 50.3 87.2 84.9 147.2 34.6 59.9 63.2 109.5 63.4 110.2.4 1-4 1.3-20.9 1.3h-21.4l-60.3-104.5C261 193.1 233 145 231.9 143.6c-2.5-3.1-6.2-4-9.7-2.2-2.6 1.4-19.1 29.6-162.2 277.8-10.7 18.6-19.9 33.9-20.5 33.9-.7.1-10.2-15.3-19.6-32l-2.1-3.8 30-51.9c16.5-28.5 42.4-73.5 57.7-99.9 15.2-26.4 48.4-83.9 73.7-127.8C204.6 93.9 225.5 58 225.9 58c.3.1 10.5 17.3 22.5 38.3zm-11.9 87.3c5.5 9.6 10.1 17.9 10.3 18.5.3.7-45.3 80.3-112 195.4-6.6 11.4-9.8 18-9.8 20.1 0 3.8 3 7.1 7.2 7.9 1.8.4 15.8.5 31 .3 27.2-.3 27.8-.3 30-2.5 3.3-3.3 3-8.9-.6-11.9-2.7-2.4-3.1-2.4-23.7-2.4-11.5 0-20.9-.3-20.9-.6s4.6-8.6 10.3-18.5l10.2-17.9h239l10.7 18.5 10.6 18.5-105.8.2c-100.5.3-105.9.4-107.8 2.1-1.1 1-2.2 2.9-2.4 4.2-.6 3 1.5 8 3.8 9.1 1.1.5 60.2 1.1 137.1 1.4l135.2.5-10.5 18.3-10.6 18.2H260.9c-206 0-207 0-205.9-2 .6-1.1 15.8-27.5 33.8-58.7 18.1-31.3 56.1-97.2 84.7-146.6 28.5-49.3 52.1-89.7 52.4-89.7.3.1 5.1 8 10.6 17.6zm59.8 103.7 38.8 67.2-77.7.3c-42.8.1-77.9 0-78.1-.2-.5-.4 76.9-134.6 77.7-134.6.3 0 17.9 30.3 39.3 67.3z"/>
</svg>